<svg width="92" height="92" viewBox="0 0 92 92" fill="none" xmlns="http://www.w3.org/2000/svg">
<g clip-path="url(#clip0_203_1874)">
<path d="M11.9089 8.17778L12.9056 9.17445C13.9022 10.1456 13.9022 11.7811 12.9056 12.7522L12.88 12.7778C11.8833 13.7744 10.2989 13.7744 9.30222 12.7778L8.30556 11.7811C7.30889 10.81 7.30889 9.2 8.30556 8.20333L8.33111 8.17778C9.30222 7.20667 10.9122 7.18111 11.9089 8.17778Z" fill="white"/>
<path d="M2.53 25.4278H5.13667C6.54222 25.4278 7.66667 26.5522 7.66667 27.9833V28.0089C7.66667 29.4144 6.54222 30.5389 5.11111 30.5133H2.53C1.12444 30.5133 0 29.3889 0 27.9833V27.9578C0 26.5522 1.12444 25.4278 2.53 25.4278Z" fill="white"/>
<path d="M28.1111 0H28.1367C29.5422 0 30.6667 1.12444 30.6667 2.53V5.00889C30.6667 6.41445 29.5422 7.53889 28.1111 7.51333H28.0856C26.68 7.51333 25.5556 6.38889 25.5556 4.98333V2.53C25.5556 1.12444 26.68 0 28.1111 0Z" fill="white"/>
<path d="M44.3133 8.17778C45.31 7.20667 46.92 7.20667 47.9167 8.20333C48.9133 9.2 48.9133 10.7844 47.9167 11.7811L46.92 12.7778C45.9489 13.7744 44.3389 13.7744 43.3422 12.7778L43.3167 12.7522C42.32 11.7811 42.32 10.1711 43.3167 9.17445L44.3133 8.17778Z" fill="white"/>
<path d="M12.7778 27.9833C12.7778 19.5244 19.6522 12.65 28.1111 12.65C33.9173 12.65 38.9769 15.8888 41.5794 20.6558C38.6122 23.2941 36.395 26.7577 35.288 30.6866C35.027 30.6734 34.7643 30.6667 34.5 30.6667C27.7843 30.6667 22.077 34.984 20.0022 40.9946C15.6662 38.2837 12.7778 33.4664 12.7778 27.9833Z" fill="white"/>
<path d="M11.9089 47.7633C10.9122 48.76 9.30222 48.76 8.30556 47.7633C7.30889 46.7667 7.30889 45.1822 8.28 44.16L9.27667 43.1633C10.2733 42.1667 11.8833 42.1667 12.88 43.1633L12.9056 43.1889C13.8767 44.16 13.9022 45.77 12.9056 46.7667L11.9089 47.7633Z" fill="white"/>
<path d="M76.6667 72.8333H26.8333C20.4821 72.8333 15.3333 67.6846 15.3333 61.3333C15.3333 56.3211 18.5399 52.0578 23.0135 50.4829C23.0045 50.2675 23 50.051 23 49.8333C23 41.365 29.865 34.5 38.3333 34.5C38.5976 34.5 38.8603 34.5067 39.1213 34.5199C41.6177 25.6605 49.7588 19.1667 59.4167 19.1667C71.0607 19.1667 80.5 28.606 80.5 40.25C80.5 41.05 80.4554 41.8397 80.3687 42.6166C87.0486 44.2726 92 50.3081 92 57.5C92 65.9684 85.135 72.8333 76.6667 72.8333Z" fill="white"/>
<path d="M38.2774 88.2785L43.3726 78.0881C43.8082 77.217 44.6986 76.6667 45.6726 76.6667C47.5842 76.6667 48.8275 78.6784 47.9726 80.3881L42.8774 90.5785C42.4418 91.4497 41.5514 92 40.5774 92C38.6658 92 37.4225 89.9883 38.2774 88.2785Z" fill="white"/>
<path d="M49.7774 88.2785L54.8726 78.0881C55.3082 77.217 56.1986 76.6667 57.1726 76.6667C59.0842 76.6667 60.3275 78.6784 59.4726 80.3881L54.3774 90.5785C53.9418 91.4497 53.0514 92 52.0774 92C50.1658 92 48.9225 89.9883 49.7774 88.2785Z" fill="white"/>
</g>
<defs>
<clipPath id="clip0_203_1874">
<rect width="92" height="92" fill="white"/>
</clipPath>
</defs>
</svg>
