<svg width="120" height="120" viewBox="0 0 120 120" fill="none" xmlns="http://www.w3.org/2000/svg">
<path d="M30.2614 23.032L28.3105 21.0731C26.3596 19.1142 23.2082 19.1644 21.3073 21.0731L21.2573 21.1233C19.3064 23.0822 19.3064 26.2466 21.2573 28.1552L23.2082 30.1142C25.159 32.0731 28.2605 32.0731 30.2113 30.1142L30.2614 30.0639C32.2122 28.1552 32.2122 24.9406 30.2614 23.032V23.032ZM15.0544 54.9772H9.95213C7.20088 54.9772 4.99988 57.1872 4.99988 59.9498V60C4.99988 62.7625 7.20088 64.9726 9.95213 64.9726H15.0044C17.8057 65.0228 20.0067 62.8128 20.0067 60.0502V60C20.0067 57.1872 17.8057 54.9772 15.0544 54.9772ZM60.0749 5H60.0249C57.2236 5 55.0226 7.21005 55.0226 9.9726V14.7945C55.0226 17.5571 57.2236 19.7671 59.9749 19.7671H60.0249C62.8262 19.8174 65.0272 17.6073 65.0272 14.8447V9.9726C65.0272 7.21005 62.8262 5 60.0749 5V5ZM98.7925 21.1233C96.8416 19.1644 93.6902 19.1644 91.7393 21.0731L89.7884 23.032C87.8375 24.9909 87.8375 28.1552 89.7884 30.0639L89.8384 30.1142C91.7893 32.0731 94.9408 32.0731 96.8416 30.1142L98.7925 28.1552C100.743 26.1963 100.743 23.0822 98.7925 21.1233V21.1233ZM89.7384 96.968L91.6893 98.9269C93.6402 100.886 96.7916 100.886 98.7425 98.9269C100.693 96.968 100.693 93.8036 98.7425 91.8447L96.7916 89.8858C94.8407 87.9269 91.6893 87.9772 89.7884 89.8858C87.7875 91.895 87.7875 95.0091 89.7384 96.968ZM100.043 59.9498V60C100.043 62.7625 102.244 64.9726 104.995 64.9726H110.048C112.799 64.9726 115 62.7625 115 60V59.9498C115 57.1872 112.799 54.9772 110.048 54.9772H104.995C102.244 54.9772 100.043 57.1872 100.043 59.9498ZM60.0249 29.863C43.4674 29.863 30.0112 43.3744 30.0112 60C30.0112 76.6256 43.4674 90.137 60.0249 90.137C76.5824 90.137 90.0385 76.6256 90.0385 60C90.0385 43.3744 76.5824 29.863 60.0249 29.863ZM59.9749 115H60.0249C62.7761 115 64.9771 112.79 64.9771 110.027V105.205C64.9771 102.443 62.7761 100.233 60.0249 100.233H59.9749C57.2236 100.233 55.0226 102.443 55.0226 105.205V110.027C55.0226 112.79 57.2236 115 59.9749 115ZM21.2573 98.8767C23.2082 100.836 26.3596 100.836 28.3105 98.8767L30.2614 96.9178C32.2122 94.9589 32.1622 91.7945 30.2614 89.8858L30.2113 89.8356C28.2605 87.8767 25.109 87.8767 23.1581 89.8356L21.2072 91.7945C19.3064 93.8036 19.3064 96.9178 21.2573 98.8767Z" fill="white"/>
</svg>
