<svg width="137" height="137" viewBox="0 0 137 137" fill="none" xmlns="http://www.w3.org/2000/svg">
<path d="M19.2181 25.0787L17.7339 23.5945C16.2497 22.1104 13.8522 22.1484 12.4061 23.5945L12.3681 23.6326C10.8839 25.1168 10.8839 27.5142 12.3681 28.9604L13.8522 30.4445C15.3364 31.9287 17.6958 31.9287 19.18 30.4445L19.2181 30.4065C20.7022 28.9604 20.7022 26.5248 19.2181 25.0787Z" fill="white"/>
<path d="M7.64917 49.282H3.7675C1.67444 49.282 0 50.9565 0 53.0495V53.0876C0 55.1806 1.67444 56.8551 3.7675 56.8551H7.61111C9.74222 56.8931 11.4167 55.2187 11.4167 53.1256V53.0876C11.4167 50.9565 9.74222 49.282 7.64917 49.282Z" fill="white"/>
<path d="M41.8992 11.4167H41.8611C39.73 11.4167 38.0556 13.0912 38.0556 15.1842V18.8376C38.0556 20.9306 39.73 22.6051 41.8231 22.6051H41.8611C43.9922 22.6431 45.6667 20.9687 45.6667 18.8756V15.1842C45.6667 13.0912 43.9922 11.4167 41.8992 11.4167Z" fill="white"/>
<path d="M71.3542 23.6326C69.87 22.1484 67.4725 22.1484 65.9883 23.5945L64.5042 25.0787C63.02 26.5629 63.02 28.9604 64.5042 30.4065L64.5422 30.4445C66.0264 31.9287 68.4239 31.9287 69.87 30.4445L71.3542 28.9604C72.8383 27.4762 72.8383 25.1168 71.3542 23.6326Z" fill="white"/>
<path d="M41.8611 30.2542C29.2647 30.2542 19.0278 40.4912 19.0278 53.0876C19.0278 61.2526 23.329 68.4262 29.7859 72.4631C32.8756 63.5125 41.3745 57.0834 51.375 57.0834C51.7686 57.0834 52.1598 57.0934 52.5484 57.1131C54.1969 51.2625 57.4985 46.1048 61.9171 42.1759C58.0417 35.0773 50.5073 30.2542 41.8611 30.2542Z" fill="white"/>
<path d="M12.3681 82.5426C13.8522 84.0268 16.2497 84.0268 17.7339 82.5426L19.2181 81.0584C20.7022 79.5743 20.6642 77.1768 19.2181 75.7307L19.18 75.6926C17.6958 74.2084 15.2983 74.2084 13.8142 75.6926L12.33 77.1768C10.8839 78.699 10.8839 81.0584 12.3681 82.5426Z" fill="white"/>
<path d="M39.9583 119.875H114.167C126.777 119.875 137 109.652 137 97.0418C137 86.332 129.627 77.3444 119.679 74.8784C119.809 73.7215 119.875 72.5456 119.875 71.3542C119.875 54.0148 105.819 39.9584 88.4792 39.9584C74.0974 39.9584 61.9741 49.6285 58.2568 62.8214C57.8681 62.8017 57.4769 62.7917 57.0833 62.7917C44.4728 62.7917 34.25 73.0146 34.25 85.6251C34.25 85.9492 34.2568 86.2716 34.2701 86.5924C27.6083 88.9376 22.8333 95.2862 22.8333 102.75C22.8333 112.208 30.5005 119.875 39.9583 119.875Z" fill="white"/>
</svg>
