<svg width="148" height="148" viewBox="0 0 148 148" fill="none" xmlns="http://www.w3.org/2000/svg">
<path d="M30.8334 104.833H111C124.623 104.833 135.667 93.7897 135.667 80.1667C135.667 68.597 127.701 58.8878 116.955 56.2237C117.095 54.974 117.167 53.7037 117.167 52.4167C117.167 33.685 101.982 18.5 83.25 18.5C67.7135 18.5 54.6169 28.9465 50.601 43.1987C50.1812 43.1774 49.7585 43.1667 49.3334 43.1667C35.7104 43.1667 24.6667 54.2103 24.6667 67.8333C24.6667 68.1834 24.674 68.5318 24.6884 68.8784C17.4917 71.4119 12.3334 78.2702 12.3334 86.3333C12.3334 96.5506 20.6161 104.833 30.8334 104.833Z" fill="white"/>
<path d="M30.8334 111C29.1305 111 27.75 112.38 27.75 114.083C27.75 115.786 29.1305 117.167 30.8334 117.167H117.167C118.87 117.167 120.25 115.786 120.25 114.083C120.25 112.38 118.87 111 117.167 111H30.8334Z" fill="white"/>
<path d="M30.8334 123.333C29.1305 123.333 27.75 124.714 27.75 126.417C27.75 128.12 29.1305 129.5 30.8334 129.5H117.167C118.87 129.5 120.25 128.12 120.25 126.417C120.25 124.714 118.87 123.333 117.167 123.333H30.8334Z" fill="white"/>
</svg>
