<svg width="70" height="70" viewBox="0 0 70 70" fill="none" xmlns="http://www.w3.org/2000/svg">
<g clip-path="url(#clip0_203_1738)">
<path d="M12.8221 36.3541C13.3739 36.0044 13.9674 35.7147 14.5936 35.4943C14.5868 35.3304 14.5833 35.1656 14.5833 35C14.5833 29.2091 18.8025 24.4036 24.3345 23.4898C22.2275 22.4978 20.2546 21.1299 18.516 19.3848C13.9608 14.8539 11.973 8.7094 12.5321 2.79244C12.6977 1.07528 10.2545 -0.766017 8.70154 0.330483C7.76979 0.992522 6.90015 1.73731 6.07193 2.56486C-2.02398 10.6335 -2.02398 23.7501 6.07193 31.8187C8.06567 33.8261 10.3661 35.3379 12.8221 36.3541Z" fill="white"/>
<path d="M32.2584 15.1908L30.722 10.0966L35.7072 6.32754L29.4214 6.15268L27.3328 0.324208L25.2441 6.15268L18.9583 6.32754L23.9436 10.0966L22.1504 16.0417L27.3328 12.5252L31.8107 15.5637C31.9576 15.4368 32.1069 15.3124 32.2584 15.1908Z" fill="white"/>
<path d="M51.6708 4.20987L48.4393 6.63841L49.6018 10.4852L46.2521 8.2121L42.9023 10.4852L44.0648 6.63841L40.8333 4.20987L44.8924 4.11273L46.2521 0.324223L47.6117 4.11273L51.6708 4.20987Z" fill="white"/>
<path d="M58.3333 55.4167H20.4167C15.5842 55.4167 11.6667 51.4992 11.6667 46.6667C11.6667 42.853 14.1064 39.6092 17.5103 38.4109C17.5034 38.247 17.5 38.0823 17.5 37.9167C17.5 31.4733 22.7233 26.25 29.1667 26.25C29.3678 26.25 29.5677 26.2551 29.7662 26.2651C31.6656 19.5243 37.86 14.5833 45.2083 14.5833C54.0679 14.5833 61.25 21.7654 61.25 30.625C61.25 31.2337 61.2161 31.8345 61.1501 32.4256C66.2326 33.6857 70 38.2779 70 43.75C70 50.1933 64.7767 55.4167 58.3333 55.4167Z" fill="white"/>
<path d="M29.1241 67.1684L33.0009 59.4149C33.3323 58.752 34.0098 58.3333 34.7509 58.3333C36.2054 58.3333 37.1513 59.864 36.5009 61.1649L32.6241 68.9184C32.2927 69.5813 31.6152 70 30.8741 70C29.4196 70 28.4737 68.4694 29.1241 67.1684Z" fill="white"/>
<path d="M37.8741 67.1684L41.7509 59.4149C42.0823 58.752 42.7598 58.3333 43.5009 58.3333C44.9554 58.3333 45.9013 59.864 45.2509 61.1649L41.3741 68.9184C41.0427 69.5813 40.3652 70 39.6241 70C38.1696 70 37.2237 68.4694 37.8741 67.1684Z" fill="white"/>
</g>
<defs>
<clipPath id="clip0_203_1738">
<rect width="70" height="70" fill="white"/>
</clipPath>
</defs>
</svg>
