<svg width="142" height="142" viewBox="0 0 142 142" fill="none" xmlns="http://www.w3.org/2000/svg">
<path d="M105.02 24.199L90.0513 35.6773L95.4354 53.7823L79.8746 43.0732L64.3138 53.7823L69.6979 35.6773L54.7288 24.199L73.6029 23.6665L79.8746 5.9165L86.1463 23.6665L105.02 24.199ZM125.729 65.0832L116.025 72.479L119.516 84.194L109.458 77.2715L99.3996 84.194L102.89 72.479L93.1871 65.0832L105.375 64.7873L109.458 53.2498L113.54 64.7873L125.729 65.0832ZM112.239 94.3707C117.15 93.8973 122.415 100.879 119.28 105.317C117.386 107.979 115.375 110.464 112.89 112.831C89.7554 136.083 52.3029 136.083 29.2279 112.831C6.09378 89.7557 6.09378 52.244 29.2279 29.169C31.5946 26.8023 34.0796 24.6723 36.7421 22.779C41.1796 19.6432 48.1613 24.909 47.6879 29.8198C46.0904 46.7415 51.7704 64.314 64.7871 77.2715C77.7446 90.2882 95.2579 95.9682 112.239 94.3707Z" fill="white"/>
</svg>
