<svg width="108" height="108" viewBox="0 0 108 108" fill="none" xmlns="http://www.w3.org/2000/svg">
<path d="M22.5 76.5H81C90.9411 76.5 99 68.4411 99 58.5C99 50.0573 93.1875 42.9722 85.3458 41.0281C85.4477 40.1161 85.5 39.1892 85.5 38.25C85.5 24.581 74.419 13.5 60.75 13.5C49.4125 13.5 39.8555 21.1231 36.9251 31.5234C36.6187 31.5079 36.3102 31.5 36 31.5C26.0589 31.5 18 39.5589 18 49.5C18 49.7555 18.0053 50.0097 18.0159 50.2626C12.7642 52.1114 9 57.1161 9 63C9 70.4558 15.0442 76.5 22.5 76.5Z" fill="white"/>
<path d="M33.3657 81C32.2223 81 31.177 81.646 30.6657 82.6687L24.6843 94.6313C23.6808 96.6384 25.1403 99 27.3843 99C28.5277 99 29.573 98.354 30.0843 97.3313L36.0657 85.3687C37.0692 83.3616 35.6097 81 33.3657 81Z" fill="white"/>
<path d="M46.8657 81C49.1097 81 50.5692 83.3616 49.5657 85.3687L43.5843 97.3313C43.073 98.354 42.0277 99 40.8843 99C38.6403 99 37.1808 96.6384 38.1843 94.6313L44.1657 82.6687C44.677 81.646 45.7223 81 46.8657 81Z" fill="white"/>
<path d="M73.8657 81C76.1097 81 77.5692 83.3616 76.5657 85.3687L70.5843 97.3313C70.073 98.354 69.0277 99 67.8843 99C65.6403 99 64.1808 96.6384 65.1843 94.6313L71.1657 82.6687C71.677 81.646 72.7223 81 73.8657 81Z" fill="white"/>
<path d="M60.3657 81C62.6097 81 64.0692 83.3616 63.0657 85.3687L57.0843 97.3313C56.573 98.354 55.5277 99 54.3843 99C52.1403 99 50.6808 96.6384 51.6843 94.6313L57.6657 82.6687C58.177 81.646 59.2223 81 60.3657 81Z" fill="white"/>
</svg>
