<svg width="127" height="127" viewBox="0 0 127 127" fill="none" xmlns="http://www.w3.org/2000/svg">
<path fill-rule="evenodd" clip-rule="evenodd" d="M55.5405 63.5048L35.2465 75.3745L19.16 67.9903L15.8578 75.2545L26.8359 80.2938L20.7973 83.8256L24.7275 90.7218L30.7651 87.1906L29.5841 99.3396L37.4451 100.075L39.1757 82.2713L59.4793 70.3959V94.2691L45.1127 104.696L49.7751 111.12L59.4793 104.077V111.125H67.4168V104.077L77.1214 111.12L81.7838 104.696L67.4168 94.2687V70.451L87.7657 82.3529L89.4965 100.158L97.3575 99.4231L96.1763 87.2721L102.215 90.8042L106.145 83.908L100.107 80.3765L111.084 75.338L107.782 68.0738L91.6968 75.4572L71.2614 63.5048L91.6338 51.5891L107.825 59.0213L111.127 51.7571L100.044 46.6699L106.153 43.0968L102.223 36.2006L96.231 39.7054L97.4007 27.672L89.5397 26.9371L87.8204 44.6246L67.4168 56.5585V32.8118L81.8761 22.3174L77.2137 15.8935L67.4168 23.004V15.875H59.4793V22.8697L49.8674 15.8935L45.205 22.3174L59.4793 32.6775V56.6136L39.238 44.7747L37.4961 26.8545L29.6351 27.5895L30.8274 39.8554L24.7196 36.283L20.7894 43.1792L26.7813 46.6838L15.9088 51.6746L19.211 58.9388L35.1919 51.6031L55.5405 63.5048Z" fill="white"/>
</svg>
