<svg width="109" height="103" viewBox="0 0 109 103" fill="none" xmlns="http://www.w3.org/2000/svg">
<path d="M68.1654 72.9583H81.75C91.7832 72.9583 99.9167 65.2726 99.9167 55.7917C99.9167 47.7398 94.0503 40.9827 86.1361 39.1287C86.2389 38.2589 86.2917 37.3749 86.2917 36.4792C86.2917 23.4429 75.1082 12.875 61.3125 12.875C49.8701 12.875 40.2246 20.1452 37.267 30.0639C36.9578 30.0492 36.6465 30.0417 36.3334 30.0417C26.3002 30.0417 18.1667 37.7274 18.1667 47.2083C18.1667 47.452 18.1721 47.6944 18.1827 47.9356C12.8824 49.6988 9.08337 54.4718 9.08337 60.0833C9.08337 67.194 15.1835 72.9583 22.7084 72.9583H35.6442L55.0984 40.7874C57.4091 36.9663 63.5834 38.5157 63.5834 42.9167V60.0833H68.125C71.6122 60.0833 73.7984 63.6432 72.0683 66.5043L68.1654 72.9583Z" fill="white"/>
<path d="M40.875 72.9583L59.0417 42.9167V64.375H68.125L49.9584 94.4167V72.9583H40.875Z" fill="white"/>
</svg>
