<svg width="48" height="44" viewBox="0 0 48 44" fill="none" xmlns="http://www.w3.org/2000/svg">
<path d="M27.0749 21.6841C27.0749 28.5971 21.0139 34.2011 13.5377 34.2011C6.06146 34.2011 0 28.5958 0 21.6841C0 14.7724 6.061 9.16666 13.5377 9.16666C21.0143 9.16666 27.0749 14.7711 27.0749 21.6841Z" fill="white"/>
<path d="M41.9256 21.6841C41.9256 28.1912 38.8951 33.4683 35.1568 33.4683C31.4184 33.4683 28.3879 28.1912 28.3879 21.6841C28.3879 15.177 31.418 9.8999 35.1563 9.8999C38.8947 9.8999 41.9252 15.1753 41.9252 21.6841" fill="white"/>
<path d="M48 21.6841C48 27.5129 46.9344 32.2409 45.6194 32.2409C44.3045 32.2409 43.2393 27.5141 43.2393 21.6841C43.2393 15.8541 44.3049 11.1273 45.6194 11.1273C46.9339 11.1273 48 15.8537 48 21.6841Z" fill="white"/>
</svg>
