<svg width="48" height="44" viewBox="0 0 48 44" fill="none" xmlns="http://www.w3.org/2000/svg">
<path d="M24 3.96172C30.4125 3.96172 31.1719 3.9875 33.6938 4.09062C36.0375 4.18516 37.3031 4.54609 38.1469 4.84688C39.2625 5.24219 40.0688 5.72344 40.9031 6.48828C41.7469 7.26172 42.2625 7.99219 42.6938 9.01484C43.0219 9.78828 43.4156 10.957 43.5188 13.0969C43.6313 15.4172 43.6594 16.1133 43.6594 21.9828C43.6594 27.8609 43.6313 28.557 43.5188 30.8688C43.4156 33.0172 43.0219 34.1773 42.6938 34.9508C42.2625 35.9734 41.7375 36.7125 40.9031 37.4773C40.0594 38.2508 39.2625 38.7234 38.1469 39.1188C37.3031 39.4195 36.0281 39.7805 33.6938 39.875C31.1625 39.9781 30.4031 40.0039 24 40.0039C17.5875 40.0039 16.8281 39.9781 14.3063 39.875C11.9625 39.7805 10.6969 39.4195 9.85313 39.1188C8.7375 38.7234 7.93125 38.2422 7.09688 37.4773C6.25313 36.7039 5.7375 35.9734 5.30625 34.9508C4.97813 34.1773 4.58438 33.0086 4.48125 30.8688C4.36875 28.5484 4.34063 27.8523 4.34063 21.9828C4.34063 16.1047 4.36875 15.4086 4.48125 13.0969C4.58438 10.9484 4.97813 9.78828 5.30625 9.01484C5.7375 7.99219 6.2625 7.25313 7.09688 6.48828C7.94063 5.71484 8.7375 5.24219 9.85313 4.84688C10.6969 4.54609 11.9719 4.18516 14.3063 4.09062C16.8281 3.9875 17.5875 3.96172 24 3.96172ZM24 0C17.4844 0 16.6688 0.0257812 14.1094 0.128906C11.5594 0.232031 9.80625 0.610156 8.2875 1.15156C6.70312 1.71875 5.3625 2.46641 4.03125 3.69531C2.69063 4.91563 1.875 6.14453 1.25625 7.58828C0.665625 8.98906 0.253125 10.5875 0.140625 12.925C0.028125 15.2797 0 16.0273 0 22C0 27.9727 0.028125 28.7203 0.140625 31.0664C0.253125 33.4039 0.665625 35.0109 1.25625 36.4031C1.875 37.8555 2.69063 39.0844 4.03125 40.3047C5.3625 41.525 6.70313 42.2812 8.27813 42.8398C9.80625 43.3813 11.55 43.7594 14.1 43.8625C16.6594 43.9656 17.475 43.9914 23.9906 43.9914C30.5063 43.9914 31.3219 43.9656 33.8813 43.8625C36.4313 43.7594 38.1844 43.3813 39.7031 42.8398C41.2781 42.2812 42.6188 41.525 43.95 40.3047C45.2812 39.0844 46.1063 37.8555 46.7156 36.4117C47.3063 35.0109 47.7188 33.4125 47.8313 31.075C47.9438 28.7289 47.9719 27.9813 47.9719 22.0086C47.9719 16.0359 47.9438 15.2883 47.8313 12.9422C47.7188 10.6047 47.3063 8.99766 46.7156 7.60547C46.125 6.14453 45.3094 4.91563 43.9688 3.69531C42.6375 2.475 41.2969 1.71875 39.7219 1.16016C38.1938 0.61875 36.45 0.240625 33.9 0.1375C31.3313 0.0257813 30.5156 0 24 0Z" fill="white"/>
<path d="M24 10.6992C17.1938 10.6992 11.6719 15.7609 11.6719 22C11.6719 28.2391 17.1938 33.3008 24 33.3008C30.8062 33.3008 36.3281 28.2391 36.3281 22C36.3281 15.7609 30.8062 10.6992 24 10.6992ZM24 29.3305C19.5844 29.3305 16.0031 26.0477 16.0031 22C16.0031 17.9523 19.5844 14.6695 24 14.6695C28.4156 14.6695 31.9969 17.9523 31.9969 22C31.9969 26.0477 28.4156 29.3305 24 29.3305Z" fill="white"/>
<path d="M39.6937 10.2523C39.6937 11.7132 38.4 12.8906 36.8156 12.8906C35.2219 12.8906 33.9375 11.7046 33.9375 10.2523C33.9375 8.79133 35.2313 7.61398 36.8156 7.61398C38.4 7.61398 39.6937 8.79992 39.6937 10.2523Z" fill="white"/>
</svg>
