<svg width="33" height="44" viewBox="0 0 33 44" fill="none" xmlns="http://www.w3.org/2000/svg">
<path fill-rule="evenodd" clip-rule="evenodd" d="M8.64012 0H23.9999C28.7695 0 32.64 3.54796 32.64 7.92006C32.64 10.9839 30.7392 13.643 27.9603 14.9599C30.7392 16.277 32.64 18.9361 32.64 21.9999C32.64 26.372 28.7695 29.92 23.9999 29.92C21.2868 29.92 18.8646 28.772 17.2802 26.9773V36.0799C17.2802 40.452 13.4097 44 8.64012 44C3.87054 44 0 40.452 0 36.0799C0 33.0161 1.90078 30.3569 4.67971 29.0399C1.90078 27.7229 0 25.0638 0 21.9999C0 18.9361 1.90076 16.277 4.67966 14.9599C1.90077 13.643 0 10.9839 0 7.92006C0 3.54796 3.87054 0 8.64012 0ZM1.92 7.92006C1.92 4.51999 4.93091 1.76 8.64012 1.76H15.3598V14.0799H8.64012L8.61929 14.0799C4.91962 14.0696 1.92 11.3137 1.92 7.92006ZM15.3602 21.9162C15.3599 21.9441 15.3598 21.972 15.3598 21.9999C15.3598 22.0279 15.3599 22.0558 15.3602 22.0837V28.1598H8.64008C4.93091 28.16 1.92 25.4 1.92 21.9999C1.92 18.6062 4.91974 15.8501 8.61946 15.8399L8.64012 15.8399H15.3598L15.3602 21.9162ZM17.2802 22.0737V21.9262C17.3233 18.5684 20.3026 15.8535 23.9723 15.8399H23.9999C24.0068 15.8399 24.0137 15.8399 24.0205 15.8399C27.7203 15.8501 30.72 18.6062 30.72 21.9999C30.72 25.4 27.7091 28.16 23.9999 28.16C20.3175 28.16 17.3234 25.4398 17.2802 22.0737ZM18.5705 15.8399C18.0965 16.1915 17.6638 16.5881 17.2802 17.0226V15.8399H18.5705ZM24.0207 14.0799C24.0138 14.0799 24.0068 14.0799 23.9999 14.0799C23.9894 14.0799 23.9789 14.0799 23.9684 14.0799H17.2802V1.76H23.9999C27.7091 1.76 30.72 4.51999 30.72 7.92006C30.72 11.3137 27.7204 14.0696 24.0207 14.0799ZM8.64012 29.9199C4.93091 29.9199 1.92 32.6799 1.92 36.0799C1.92 39.48 4.93091 42.24 8.64012 42.24C12.3493 42.24 15.3602 39.48 15.3602 36.0799V29.9199H8.64012Z" fill="white"/>
</svg>
